<?xml version="1.0" standalone="no"?>
<!DOCTYPE svg PUBLIC "-//W3C//DTD SVG 20010904//EN"
 "http://www.w3.org/TR/2001/REC-SVG-20010904/DTD/svg10.dtd">
<svg version="1.0" xmlns="http://www.w3.org/2000/svg"
 width="600.000000pt" height="600.000000pt" viewBox="0 0 600.000000 600.000000"
 preserveAspectRatio="xMidYMid meet">

<g transform="translate(0.000000,600.000000) scale(0.100000,-0.100000)"
fill="#000000" stroke="none">
<path d="M3887 5253 c-3 -82 -2 -154 3 -163 39 -72 85 -330 60 -330 -6 0 -10
7 -10 15 0 10 -10 15 -30 15 -20 0 -30 5 -30 15 0 18 -39 20 -44 3 -2 -7 -9
-60 -14 -118 -27 -256 -128 -481 -322 -713 -70 -83 -251 -255 -280 -265 -14
-5 14 69 54 144 18 35 31 64 28 64 -3 0 -47 -34 -98 -75 -116 -95 -292 -277
-366 -381 -102 -143 -184 -309 -196 -398 -3 -26 -8 -34 -13 -24 -18 32 -49
222 -49 298 0 94 4 92 -90 37 -69 -41 -275 -243 -329 -324 -23 -34 -59 -95
-81 -135 l-40 -73 0 65 c0 36 4 80 9 98 6 19 6 32 1 32 -16 0 -140 -153 -191
-234 -49 -80 -106 -214 -134 -316 -12 -43 -20 -56 -35 -57 -25 -2 -27 14 -2
20 12 3 10 5 -7 6 l-24 1 7 -88 c4 -48 16 -124 26 -170 l20 -83 -75 -87 c-257
-297 -431 -645 -492 -987 -22 -125 -20 -370 4 -490 l19 -90 7 112 c26 431 219
831 560 1159 164 159 335 281 592 424 690 384 1134 752 1416 1174 145 218 243
453 300 721 l29 140 -4 -115 c-13 -316 -190 -717 -472 -1070 -82 -103 -329
-356 -440 -451 -296 -255 -668 -501 -1081 -716 -90 -47 -163 -86 -163 -87 0
-2 19 -16 43 -33 51 -37 108 -49 296 -63 173 -13 560 -13 676 0 114 13 240 39
262 55 14 10 6 16 -53 35 -38 12 -73 26 -77 30 -4 4 38 10 95 13 116 7 249 34
365 72 100 33 283 123 348 170 l50 36 -105 -6 c-114 -7 -344 8 -400 27 l-34
11 74 22 c212 61 479 183 650 295 96 63 219 159 254 199 19 21 19 21 -2 21
-20 0 -146 -15 -207 -25 -22 -3 -10 6 40 33 183 98 328 241 450 447 51 86 105
198 105 216 0 5 -35 -16 -77 -47 -93 -66 -221 -130 -283 -139 l-44 -7 17 23
c47 65 136 224 173 309 111 252 164 508 164 782 0 162 -43 460 -60 426 -4 -7
-18 -68 -31 -135 -24 -126 -39 -150 -39 -60 0 94 -42 253 -102 392 -40 92
-134 253 -169 287 -14 15 -24 30 -21 33 3 3 -4 5 -16 5 -25 0 -38 16 -20 24 9
4 8 5 -2 4 -24 -3 -61 13 -55 23 4 5 -3 9 -14 9 -11 0 -26 6 -33 13 -7 7 -21
16 -31 20 -11 4 -15 12 -11 19 5 7 2 9 -8 5 -9 -3 -24 2 -34 12 -11 9 -27 20
-37 24 -11 4 -15 12 -11 19 5 7 2 9 -8 5 -9 -3 -25 3 -35 13 -11 9 -29 20 -40
24 -19 6 -20 1 -26 -141z m190 -1360 c-3 -10 -5 -2 -5 17 0 19 2 27 5 18 2
-10 2 -26 0 -35z m-10 -65 c-3 -8 -6 -5 -6 6 -1 11 2 17 5 13 3 -3 4 -12 1
-19z"/>
<path d="M3890 4809 c0 -5 5 -7 10 -4 6 3 10 8 10 11 0 2 -4 4 -10 4 -5 0 -10
-5 -10 -11z"/>
</g>
</svg>
